<svg width="75" height="22" viewBox="0 0 75 22" fill="none" xmlns="http://www.w3.org/2000/svg">
<mask id="mask0" mask-type="alpha" maskUnits="userSpaceOnUse" x="0" y="0" width="75" height="22">
<path fill-rule="evenodd" clip-rule="evenodd" d="M0 0H75V22H0V0Z" fill="white"/>
</mask>
<g mask="url(#mask0)">
<path fill-rule="evenodd" clip-rule="evenodd" d="M10.6237 0L2.07855 22H0L8.5163 0H10.6237ZM22.6763 3.37216C21.7619 2.69478 20.5927 2.35609 19.1687 2.35609C18.5914 2.35609 18.0234 2.41499 17.4653 2.5328C16.907 2.6506 16.4116 2.84704 15.9786 3.12182C15.5456 3.39704 15.1993 3.76518 14.9393 4.22624C14.6795 4.68774 14.5497 5.26203 14.5497 5.94913C14.5497 6.59705 14.7374 7.12261 15.1125 7.52477C15.488 7.92736 15.9881 8.25648 16.6139 8.51138C17.239 8.76672 17.9463 8.97803 18.7357 9.14458C19.5245 9.31157 20.328 9.49343 21.1461 9.68942C21.964 9.88586 22.7674 10.1165 23.5568 10.3815C24.3456 10.6466 25.0529 11.005 25.6785 11.4565C26.3038 11.9084 26.8045 12.4776 27.1798 13.1647C27.555 13.8522 27.7428 14.7159 27.7428 15.7564C27.7428 16.8755 27.4972 17.8327 27.0066 18.6278C26.5159 19.423 25.8852 20.0709 25.1156 20.5716C24.3456 21.0723 23.4846 21.4359 22.532 21.6613C21.5791 21.8868 20.6311 22 19.6882 22C18.5335 22 17.4411 21.8527 16.4116 21.5582C15.3819 21.2637 14.4776 20.8174 13.6981 20.2182C12.9185 19.6195 12.3024 18.8537 11.8505 17.921C11.398 16.9887 11.1721 15.8843 11.1721 14.6078H13.7703C13.7703 15.4913 13.9384 16.2525 14.2755 16.8902C14.6119 17.5284 15.0549 18.0535 15.6034 18.4659C16.152 18.8782 16.7915 19.1829 17.5232 19.3788C18.2543 19.5753 19.0049 19.6734 19.7748 19.6734C20.3906 19.6734 21.0113 19.6145 21.6369 19.4967C22.2622 19.3788 22.8251 19.1777 23.3258 18.8929C23.826 18.6086 24.2302 18.2205 24.5382 17.7296C24.8459 17.2391 25.0002 16.6104 25.0002 15.8447C25.0002 15.1186 24.8124 14.5296 24.4373 14.0776C24.062 13.6262 23.5613 13.258 22.936 12.9732C22.3104 12.6889 21.6031 12.4578 20.8143 12.2811C20.0248 12.1044 19.2214 11.9231 18.4036 11.7363C17.5854 11.5499 16.782 11.3341 15.9932 11.0884C15.2038 10.843 14.4965 10.5191 13.8713 10.1165C13.2456 9.71431 12.7454 9.19376 12.37 8.55556C11.9948 7.91779 11.8072 7.11746 11.8072 6.15529C11.8072 5.09505 12.0187 4.1775 12.4422 3.40161C12.8654 2.62616 13.4283 1.98795 14.1311 1.48728C14.8334 0.986613 15.6323 0.613909 16.5271 0.368139C17.422 0.122811 18.3409 0 19.2842 0C20.3424 0 21.3239 0.127965 22.2287 0.382865C23.1332 0.638206 23.927 1.04095 24.6104 1.59036C25.2934 2.14021 25.8324 2.83232 26.2272 3.66667C26.6214 4.50146 26.8379 5.49764 26.8767 6.65596H24.2785C24.1242 5.14423 23.5901 4.04953 22.6763 3.37216ZM43.88 19.5261C43.5913 19.6047 43.3412 19.6439 43.1297 19.6439C42.7444 19.6439 42.5184 19.5068 42.4511 19.2325C42.3836 18.9583 42.3501 18.5276 42.3501 17.9394V10.1219C42.3501 9.24074 42.1864 8.52566 41.8592 7.97714C41.532 7.42861 41.0989 7.00245 40.5601 6.69881C40.0213 6.39502 39.4199 6.19446 38.7558 6.09639C38.092 5.99831 37.4231 5.94913 36.7496 5.94913C35.9025 5.94913 35.1087 6.03748 34.3679 6.21419C33.6268 6.3909 32.9679 6.68084 32.3905 7.083C31.8131 7.4856 31.3512 8.01071 31.0047 8.65863C30.6584 9.30656 30.4657 10.1017 30.4273 11.0442H32.8811C32.939 9.92503 33.3142 9.16431 34.007 8.76171C34.7 8.35956 35.5661 8.15797 36.6052 8.15797C36.99 8.15797 37.3798 8.18742 37.7745 8.24632C38.1687 8.30522 38.525 8.42303 38.8425 8.59973C39.1602 8.77644 39.4199 9.03178 39.6219 9.36546C39.8241 9.69958 39.9251 10.1414 39.9251 10.6908C39.9251 11.162 39.7902 11.5204 39.5211 11.7657C39.2513 12.0115 38.8858 12.1978 38.4241 12.3253C37.9619 12.4533 37.428 12.5512 36.8217 12.6198C36.2156 12.6889 35.5755 12.792 34.902 12.9291C34.267 13.0469 33.6462 13.1941 33.0401 13.3708C32.4338 13.5475 31.8947 13.808 31.4234 14.1513C30.9515 14.495 30.5716 14.9419 30.2829 15.4913C29.9943 16.0412 29.8499 16.748 29.8499 17.6118C29.8499 18.3775 29.98 19.0304 30.2396 19.5703C30.4995 20.1106 30.8505 20.5472 31.2934 20.8809C31.7359 21.215 32.2605 21.4602 32.8668 21.6171C33.4731 21.7741 34.1127 21.8527 34.7865 21.8527C35.8259 21.8527 36.793 21.6712 37.6878 21.3079C38.5829 20.9448 39.3668 20.3507 40.0406 19.5261C40.0406 20.3507 40.2284 20.9448 40.6037 21.3079C40.9788 21.6712 41.484 21.8527 42.1193 21.8527C42.8696 21.8527 43.4566 21.7248 43.88 21.4699V19.5261ZM39.8963 16.2152C39.8963 16.5667 39.8098 16.9431 39.6364 17.3435C39.4632 17.7439 39.1936 18.1152 38.828 18.4572C38.4623 18.799 37.9911 19.0824 37.4137 19.3071C36.8363 19.5316 36.1435 19.6439 35.335 19.6439C34.9499 19.6439 34.5844 19.6052 34.2381 19.527C33.8915 19.4488 33.5886 19.3217 33.3287 19.146C33.0688 18.9702 32.8569 18.7406 32.6935 18.4572C32.5298 18.1739 32.4481 17.8272 32.4481 17.4167C32.4481 16.7917 32.5875 16.2984 32.8668 15.9367C33.1456 15.5751 33.5064 15.2966 33.9494 15.1015C34.3918 14.9064 34.8921 14.7647 35.4505 14.6768C36.0085 14.5889 36.5619 14.5109 37.1104 14.4421C37.6589 14.3741 38.1832 14.2862 38.6836 14.1784C39.1841 14.0707 39.5882 13.9001 39.8963 13.6653V16.2152ZM46.3048 21.5288H48.7587V0.500669H46.3048V21.5288ZM62.6153 21.5288V19.1138H62.5575C62.0379 20.0562 61.3739 20.7483 60.5656 21.1901C59.7573 21.6319 58.8046 21.8527 57.7076 21.8527C56.726 21.8527 55.9078 21.7202 55.2537 21.4552C54.5993 21.1901 54.0701 20.8122 53.666 20.3213C53.2618 19.8308 52.9776 19.2463 52.8143 18.5689C52.6506 17.8916 52.5689 17.1406 52.5689 16.3159V6.30254H55.0228V16.6104C55.0228 17.5529 55.2921 18.2993 55.8311 18.8487C56.3697 19.3986 57.1109 19.6734 58.054 19.6734C58.8046 19.6734 59.4541 19.5556 60.0027 19.3199C60.5512 19.0843 61.0082 18.7507 61.3739 18.3186C61.7393 17.887 62.0135 17.3812 62.1967 16.8019C62.3794 16.223 62.4709 15.5898 62.4709 14.9023V6.30254H64.9248V21.5288H62.6153ZM75 6.30254V8.51138H72.0265V17.9652C72.0265 18.2597 72.0503 18.4953 72.0987 18.672C72.1465 18.8487 72.2381 18.9863 72.3729 19.0843C72.5073 19.1829 72.695 19.2463 72.9359 19.2758C73.1764 19.3052 73.4889 19.3199 73.8741 19.3199H75V21.5288H73.1235C72.4884 21.5288 71.9444 21.4846 71.4924 21.3963C71.0399 21.3079 70.6742 21.1459 70.3954 20.9103C70.1163 20.6747 69.9091 20.341 69.7747 19.909C69.6399 19.4774 69.5727 18.9076 69.5727 18.2008V8.51138H67.0322V6.30254H69.5727V1.73762H72.0265V6.30254H75Z" fill="white"/>
</g>
</svg>